<svg class="windy-cloud" xmlns="http://www.w3.org/2000/svg" xmlns:xlink="http://www.w3.org/1999/xlink" viewBox="0 0 512 512">
      <g class="cloud-wrap">
      <path d="M512,176c0-61.8-50.2-112-112-112c-5.3,0-10.6,0.4-15.8,1.1C354.3,24.4,307.2,0,256,0s-98.3,24.4-128.2,65.1
      c-5.2-0.8-10.5-1.1-15.8-1.1C50.2,64,0,114.2,0,176s50.2,112,112,112c13.7,0,27.1-2.5,39.7-7.3c29,25.2,65.8,39.3,104.3,39.3
      c38.5,0,75.3-14.1,104.3-39.3c12.6,4.8,26,7.3,39.7,7.3C461.8,288,512,237.8,512,176z M354.1,241.3C330.6,269.6,295.6,288,256,288
      c-39.6,0-74.6-18.4-98.1-46.7c-13,9.2-28.8,14.7-45.9,14.7c-44.2,0-80-35.8-80-80s35.8-80,80-80c10.8,0,21.1,2.2,30.4,6.1
      C163.7,60.7,206.3,32,256,32s92.3,28.7,113.5,70.1c9.4-3.9,19.7-6.1,30.5-6.1c44.2,0,80,35.8,80,80s-35.8,80-80,80
      C382.9,256,367.1,250.5,354.1,241.3z"></path>
      </g>
      </svg>